<mxfile host="app.diagrams.net" modified="2023-10-05T19:02:11.037Z" agent="Mozilla/5.0 (Windows NT 10.0; Win64; x64) AppleWebKit/537.36 (KHTML, like Gecko) Chrome/116.0.0.0 Safari/537.36 OPR/102.0.0.0" etag="oDol3-vBiEtAPGF97z8t" version="21.7.4" type="device">
  <diagram name="1 oldal" id="-X2rS5A8L1C5aG8zTiw-">
    <mxGraphModel dx="431" dy="764" grid="1" gridSize="10" guides="1" tooltips="1" connect="1" arrows="1" fold="1" page="1" pageScale="1" pageWidth="827" pageHeight="1169" math="0" shadow="0">
      <root>
        <mxCell id="0" />
        <mxCell id="1" parent="0" />
        <mxCell id="4PWfL27Gv3OH4A2DMj2O-1" value="" style="edgeStyle=orthogonalEdgeStyle;rounded=0;orthogonalLoop=1;jettySize=auto;html=1;" edge="1" parent="1" source="4PWfL27Gv3OH4A2DMj2O-2" target="4PWfL27Gv3OH4A2DMj2O-4">
          <mxGeometry relative="1" as="geometry" />
        </mxCell>
        <mxCell id="4PWfL27Gv3OH4A2DMj2O-2" value="start" style="ellipse;whiteSpace=wrap;html=1;" vertex="1" parent="1">
          <mxGeometry x="255" y="10" width="120" height="80" as="geometry" />
        </mxCell>
        <mxCell id="4PWfL27Gv3OH4A2DMj2O-3" value="" style="edgeStyle=orthogonalEdgeStyle;rounded=0;orthogonalLoop=1;jettySize=auto;html=1;" edge="1" parent="1" source="4PWfL27Gv3OH4A2DMj2O-4" target="4PWfL27Gv3OH4A2DMj2O-6">
          <mxGeometry relative="1" as="geometry" />
        </mxCell>
        <mxCell id="4PWfL27Gv3OH4A2DMj2O-4" value="be: lista = [] , n:egÃ©sz , Ttul()" style="shape=parallelogram;perimeter=parallelogramPerimeter;whiteSpace=wrap;html=1;fixedSize=1;" vertex="1" parent="1">
          <mxGeometry x="220" y="130" width="190" height="80" as="geometry" />
        </mxCell>
        <mxCell id="4PWfL27Gv3OH4A2DMj2O-5" value="" style="edgeStyle=orthogonalEdgeStyle;rounded=0;orthogonalLoop=1;jettySize=auto;html=1;" edge="1" parent="1" source="4PWfL27Gv3OH4A2DMj2O-6" target="4PWfL27Gv3OH4A2DMj2O-9">
          <mxGeometry relative="1" as="geometry" />
        </mxCell>
        <mxCell id="4PWfL27Gv3OH4A2DMj2O-6" value="i =&amp;nbsp; 0 , Vane = false" style="whiteSpace=wrap;html=1;" vertex="1" parent="1">
          <mxGeometry x="255" y="240" width="120" height="60" as="geometry" />
        </mxCell>
        <mxCell id="4PWfL27Gv3OH4A2DMj2O-7" value="" style="edgeStyle=orthogonalEdgeStyle;rounded=0;orthogonalLoop=1;jettySize=auto;html=1;" edge="1" parent="1" source="4PWfL27Gv3OH4A2DMj2O-9" target="4PWfL27Gv3OH4A2DMj2O-12">
          <mxGeometry relative="1" as="geometry" />
        </mxCell>
        <mxCell id="4PWfL27Gv3OH4A2DMj2O-24" value="" style="edgeStyle=orthogonalEdgeStyle;rounded=0;orthogonalLoop=1;jettySize=auto;html=1;" edge="1" parent="1" source="4PWfL27Gv3OH4A2DMj2O-9" target="4PWfL27Gv3OH4A2DMj2O-23">
          <mxGeometry relative="1" as="geometry" />
        </mxCell>
        <mxCell id="4PWfL27Gv3OH4A2DMj2O-9" value="i &amp;lt; n and !(Ttul(lista[i]))" style="rhombus;whiteSpace=wrap;html=1;" vertex="1" parent="1">
          <mxGeometry x="236.25" y="330" width="157.5" height="160" as="geometry" />
        </mxCell>
        <mxCell id="4PWfL27Gv3OH4A2DMj2O-10" value="I" style="text;html=1;align=center;verticalAlign=middle;resizable=0;points=[];autosize=1;strokeColor=none;fillColor=none;" vertex="1" parent="1">
          <mxGeometry x="355" y="338" width="30" height="30" as="geometry" />
        </mxCell>
        <mxCell id="4PWfL27Gv3OH4A2DMj2O-11" style="edgeStyle=orthogonalEdgeStyle;rounded=0;orthogonalLoop=1;jettySize=auto;html=1;entryX=0.5;entryY=1;entryDx=0;entryDy=0;" edge="1" parent="1" source="4PWfL27Gv3OH4A2DMj2O-12" target="4PWfL27Gv3OH4A2DMj2O-9">
          <mxGeometry relative="1" as="geometry">
            <mxPoint x="310" y="580" as="targetPoint" />
            <Array as="points">
              <mxPoint x="530" y="530" />
              <mxPoint x="531" y="530" />
              <mxPoint x="531" y="580" />
              <mxPoint x="315" y="580" />
            </Array>
          </mxGeometry>
        </mxCell>
        <mxCell id="4PWfL27Gv3OH4A2DMj2O-12" value="i++" style="whiteSpace=wrap;html=1;" vertex="1" parent="1">
          <mxGeometry x="470" y="380" width="120" height="60" as="geometry" />
        </mxCell>
        <mxCell id="4PWfL27Gv3OH4A2DMj2O-13" value="H" style="text;html=1;align=center;verticalAlign=middle;resizable=0;points=[];autosize=1;strokeColor=none;fillColor=none;" vertex="1" parent="1">
          <mxGeometry x="250" y="338" width="30" height="30" as="geometry" />
        </mxCell>
        <mxCell id="4PWfL27Gv3OH4A2DMj2O-14" value="" style="edgeStyle=orthogonalEdgeStyle;rounded=0;orthogonalLoop=1;jettySize=auto;html=1;" edge="1" parent="1" source="4PWfL27Gv3OH4A2DMj2O-15" target="4PWfL27Gv3OH4A2DMj2O-17">
          <mxGeometry relative="1" as="geometry" />
        </mxCell>
        <mxCell id="4PWfL27Gv3OH4A2DMj2O-15" value="index = i" style="whiteSpace=wrap;html=1;" vertex="1" parent="1">
          <mxGeometry x="50" y="680" width="120" height="60" as="geometry" />
        </mxCell>
        <mxCell id="4PWfL27Gv3OH4A2DMj2O-16" value="" style="edgeStyle=orthogonalEdgeStyle;rounded=0;orthogonalLoop=1;jettySize=auto;html=1;" edge="1" parent="1" source="4PWfL27Gv3OH4A2DMj2O-17" target="4PWfL27Gv3OH4A2DMj2O-18">
          <mxGeometry relative="1" as="geometry" />
        </mxCell>
        <mxCell id="4PWfL27Gv3OH4A2DMj2O-17" value="ki: index" style="shape=parallelogram;perimeter=parallelogramPerimeter;whiteSpace=wrap;html=1;fixedSize=1;" vertex="1" parent="1">
          <mxGeometry x="50" y="780" width="120" height="60" as="geometry" />
        </mxCell>
        <mxCell id="4PWfL27Gv3OH4A2DMj2O-18" value="end" style="ellipse;whiteSpace=wrap;html=1;" vertex="1" parent="1">
          <mxGeometry x="50" y="870" width="120" height="80" as="geometry" />
        </mxCell>
        <mxCell id="4PWfL27Gv3OH4A2DMj2O-26" value="" style="edgeStyle=orthogonalEdgeStyle;rounded=0;orthogonalLoop=1;jettySize=auto;html=1;" edge="1" parent="1" source="4PWfL27Gv3OH4A2DMj2O-23" target="4PWfL27Gv3OH4A2DMj2O-25">
          <mxGeometry relative="1" as="geometry" />
        </mxCell>
        <mxCell id="4PWfL27Gv3OH4A2DMj2O-23" value="Vane = i &amp;lt; n" style="whiteSpace=wrap;html=1;" vertex="1" parent="1">
          <mxGeometry x="50" y="380" width="120" height="60" as="geometry" />
        </mxCell>
        <mxCell id="4PWfL27Gv3OH4A2DMj2O-27" value="" style="edgeStyle=orthogonalEdgeStyle;rounded=0;orthogonalLoop=1;jettySize=auto;html=1;" edge="1" parent="1" source="4PWfL27Gv3OH4A2DMj2O-25" target="4PWfL27Gv3OH4A2DMj2O-15">
          <mxGeometry relative="1" as="geometry" />
        </mxCell>
        <mxCell id="4PWfL27Gv3OH4A2DMj2O-29" style="edgeStyle=orthogonalEdgeStyle;rounded=0;orthogonalLoop=1;jettySize=auto;html=1;" edge="1" parent="1" source="4PWfL27Gv3OH4A2DMj2O-25">
          <mxGeometry relative="1" as="geometry">
            <mxPoint x="280" y="680" as="targetPoint" />
            <Array as="points">
              <mxPoint x="230" y="545" />
              <mxPoint x="230" y="546" />
            </Array>
          </mxGeometry>
        </mxCell>
        <mxCell id="4PWfL27Gv3OH4A2DMj2O-25" value="Vane = True" style="rhombus;whiteSpace=wrap;html=1;" vertex="1" parent="1">
          <mxGeometry x="40" y="480" width="140" height="130" as="geometry" />
        </mxCell>
        <mxCell id="4PWfL27Gv3OH4A2DMj2O-28" value="I" style="text;html=1;align=center;verticalAlign=middle;resizable=0;points=[];autosize=1;strokeColor=none;fillColor=none;" vertex="1" parent="1">
          <mxGeometry x="55" y="598" width="30" height="30" as="geometry" />
        </mxCell>
        <mxCell id="4PWfL27Gv3OH4A2DMj2O-34" style="edgeStyle=orthogonalEdgeStyle;rounded=0;orthogonalLoop=1;jettySize=auto;html=1;entryX=1;entryY=0.5;entryDx=0;entryDy=0;" edge="1" parent="1" source="4PWfL27Gv3OH4A2DMj2O-31" target="4PWfL27Gv3OH4A2DMj2O-18">
          <mxGeometry relative="1" as="geometry">
            <mxPoint x="280" y="922" as="targetPoint" />
            <Array as="points">
              <mxPoint x="280" y="850" />
              <mxPoint x="281" y="850" />
              <mxPoint x="281" y="910" />
            </Array>
          </mxGeometry>
        </mxCell>
        <mxCell id="4PWfL27Gv3OH4A2DMj2O-31" value="ki: -1" style="shape=parallelogram;perimeter=parallelogramPerimeter;whiteSpace=wrap;html=1;fixedSize=1;" vertex="1" parent="1">
          <mxGeometry x="220" y="680" width="120" height="60" as="geometry" />
        </mxCell>
      </root>
    </mxGraphModel>
  </diagram>
</mxfile>
